<svg width="2786" height="376" viewBox="0 0 2786 376" fill="none" xmlns="http://www.w3.org/2000/svg">
<path d="M1076.05 272.105C1063.52 272.105 1051.98 268.972 1041.42 262.705C1030.87 256.439 1022.46 248.028 1016.19 237.474C1009.92 226.919 1006.79 215.375 1006.79 202.842C1006.79 189.979 1009.92 178.435 1016.19 168.21C1022.46 157.656 1030.87 149.246 1041.42 142.979C1051.98 136.712 1063.52 133.579 1076.05 133.579C1088.92 133.579 1100.46 136.712 1110.68 142.979C1121.24 149.246 1129.65 157.656 1135.92 168.21C1142.18 178.435 1145.32 189.979 1145.32 202.842C1145.32 215.375 1142.18 226.919 1135.92 237.474C1129.65 248.028 1121.24 256.439 1110.68 262.705C1100.46 268.972 1088.92 272.105 1076.05 272.105Z" fill="#F1DBAE"/>
<path d="M2640.98 376C2615.92 376 2593.16 371.712 2572.71 363.137C2552.26 354.232 2535.77 341.368 2523.24 324.547C2510.7 307.726 2503.78 287.112 2502.46 262.705C2502.13 257.428 2501.96 250.832 2501.96 242.916C2501.96 235 2502.13 228.239 2502.46 222.632C2503.78 198.225 2510.54 177.61 2522.74 160.789C2535.27 143.639 2551.77 130.775 2572.21 122.2C2592.99 113.295 2615.92 108.842 2640.98 108.842C2667.04 108.842 2689.14 112.635 2707.28 120.221C2725.75 127.477 2740.59 136.547 2751.8 147.432C2763.35 157.986 2771.76 168.54 2777.04 179.095C2782.64 189.649 2785.61 198.225 2785.94 204.821C2786.27 208.449 2784.95 211.582 2781.98 214.221C2779.34 216.86 2776.21 218.179 2772.58 218.179H2676.11C2672.48 218.179 2669.51 217.354 2667.2 215.705C2665.23 213.726 2663.41 211.253 2661.76 208.284C2659.45 203.667 2656.98 200.039 2654.34 197.4C2652.03 194.761 2648.4 193.442 2643.46 193.442C2635.87 193.442 2630.76 196.246 2628.12 201.853C2625.48 207.46 2624 215.21 2623.67 225.105C2623.34 239.288 2623.34 250.996 2623.67 260.232C2624.33 270.786 2625.81 278.702 2628.12 283.979C2630.76 288.926 2635.87 291.4 2643.46 291.4C2649.39 291.4 2653.35 290.081 2655.33 287.442C2657.64 284.803 2659.78 281.175 2661.76 276.558C2663.08 273.589 2664.9 271.281 2667.2 269.632C2669.51 267.653 2672.48 266.663 2676.11 266.663H2772.58C2776.21 266.663 2779.34 267.982 2781.98 270.621C2784.95 273.26 2786.27 276.393 2785.94 280.021C2785.61 284.309 2783.8 290.411 2780.5 298.326C2777.53 305.912 2772.58 314.158 2765.66 323.063C2759.06 331.968 2750.16 340.544 2738.94 348.789C2727.73 356.705 2714.04 363.302 2697.88 368.579C2681.72 373.526 2662.75 376 2640.98 376Z" fill="#F1DBAE"/>
<path d="M2359.45 371.053C2355.82 371.053 2352.69 369.733 2350.05 367.095C2347.41 364.456 2346.09 361.323 2346.09 357.695V127.147C2346.09 123.519 2347.41 120.386 2350.05 117.747C2352.69 115.109 2355.82 113.789 2359.45 113.789H2448.01C2451.64 113.789 2454.77 115.109 2457.41 117.747C2460.05 120.386 2461.37 123.519 2461.37 127.147V357.695C2461.37 361.323 2460.05 364.456 2457.41 367.095C2454.77 369.733 2451.64 371.053 2448.01 371.053H2359.45ZM2361.92 86.579C2358.3 86.579 2355.16 85.2597 2352.52 82.6211C2349.89 79.9825 2348.57 76.8491 2348.57 73.2211V13.3579C2348.57 9.72984 2349.89 6.5965 2352.52 3.9579C2355.16 1.3193 2358.3 0 2361.92 0H2445.53C2449.16 0 2452.3 1.3193 2454.93 3.9579C2457.57 6.5965 2458.89 9.72984 2458.89 13.3579V73.2211C2458.89 76.8491 2457.57 79.9825 2454.93 82.6211C2452.3 85.2597 2449.16 86.579 2445.53 86.579H2361.92Z" fill="#F1DBAE"/>
<path d="M2242.08 371.053C2218.34 371.053 2197.06 367.919 2178.26 361.653C2159.79 355.056 2145.12 344.007 2134.23 328.505C2123.68 313.004 2118.4 291.73 2118.4 264.684V200.368H2079.32C2075.69 200.368 2072.55 199.049 2069.92 196.411C2067.28 193.772 2065.96 190.639 2065.96 187.011V127.147C2065.96 123.519 2067.28 120.386 2069.92 117.747C2072.55 115.109 2075.69 113.79 2079.32 113.79H2118.4V33.1474C2118.4 29.5194 2119.72 26.3861 2122.36 23.7475C2125 21.1088 2128.13 19.7896 2131.76 19.7896H2218.34C2221.97 19.7896 2225.1 21.1088 2227.74 23.7475C2230.38 26.3861 2231.7 29.5194 2231.7 33.1474V113.79H2294.03C2297.66 113.79 2300.79 115.109 2303.43 117.747C2306.07 120.386 2307.39 123.519 2307.39 127.147V187.011C2307.39 190.639 2306.07 193.772 2303.43 196.411C2300.79 199.049 2297.66 200.368 2294.03 200.368H2231.7V254.79C2231.7 262.376 2233.34 268.477 2236.64 273.095C2240.27 277.383 2245.71 279.526 2252.97 279.526H2297.99C2301.62 279.526 2304.75 280.846 2307.39 283.484C2310.03 286.123 2311.35 289.256 2311.35 292.884V357.695C2311.35 361.323 2310.03 364.456 2307.39 367.095C2304.75 369.733 2301.62 371.053 2297.99 371.053H2242.08Z" fill="#F1DBAE"/>
<path d="M1913.61 376C1889.86 376 1869.58 373.691 1852.76 369.074C1836.27 364.126 1822.74 358.025 1812.19 350.768C1801.97 343.182 1794.38 335.432 1789.43 327.516C1784.48 319.27 1781.85 311.849 1781.52 305.253C1781.19 301.625 1782.18 298.491 1784.48 295.853C1787.12 293.214 1790.09 291.895 1793.39 291.895H1879.47C1879.8 291.895 1880.13 291.895 1880.46 291.895C1880.79 291.895 1881.12 291.895 1881.45 291.895C1885.74 292.225 1889.53 293.709 1892.83 296.347C1896.46 298.656 1900.09 300.965 1903.72 303.274C1907.67 305.582 1912.13 306.737 1917.07 306.737C1919.71 306.737 1922.19 306.077 1924.5 304.758C1927.13 303.439 1928.45 301.625 1928.45 299.316C1928.45 296.347 1927.46 293.709 1925.48 291.4C1923.84 289.091 1919.38 286.782 1912.13 284.474C1905.2 281.835 1893.49 279.032 1877 276.063C1861.83 273.095 1847.32 268.477 1833.46 262.21C1819.61 255.944 1808.23 247.203 1799.33 235.989C1790.75 224.775 1786.46 210.593 1786.46 193.442C1786.46 179.26 1791.25 165.737 1800.81 152.874C1810.38 140.01 1824.39 129.456 1842.86 121.21C1861.66 112.965 1884.59 108.842 1911.63 108.842C1932.08 108.842 1950.22 111.151 1966.05 115.768C1981.88 120.386 1995.24 126.323 2006.13 133.579C2017.34 140.835 2025.92 148.586 2031.85 156.832C2037.79 165.077 2040.92 172.663 2041.25 179.589C2041.58 183.218 2040.59 186.351 2038.28 188.989C2035.98 191.628 2033.34 192.947 2030.37 192.947H1952.2C1951.54 192.947 1950.72 192.947 1949.73 192.947C1948.74 192.947 1947.91 192.947 1947.25 192.947C1942.64 192.947 1938.51 191.793 1934.88 189.484C1931.26 186.846 1927.63 184.372 1924 182.063C1920.37 179.425 1916.08 178.105 1911.14 178.105C1908.83 178.105 1906.52 178.93 1904.21 180.579C1902.23 181.898 1901.24 183.712 1901.24 186.021C1901.24 188.66 1902.23 191.298 1904.21 193.937C1906.19 196.246 1910.97 198.554 1918.56 200.863C1926.14 202.842 1938.51 205.151 1955.66 207.789C1979.41 211.088 1998.38 217.189 2012.56 226.095C2026.74 235 2036.8 245.225 2042.74 256.768C2049 268.312 2052.14 279.691 2052.14 290.905C2052.14 308.386 2046.7 323.558 2035.81 336.421C2025.26 349.284 2009.59 359.179 1988.81 366.105C1968.36 372.702 1943.3 376 1913.61 376Z" fill="#F1DBAE"/>
<path d="M1567.26 376C1548.46 376 1531.8 372.537 1517.29 365.61C1502.78 358.684 1491.4 349.284 1483.16 337.41C1475.24 325.537 1471.28 312.179 1471.28 297.337C1471.28 273.26 1481.01 254.46 1500.47 240.937C1520.26 227.084 1546.65 217.354 1579.63 211.747L1632.07 203.337V202.842C1632.07 194.267 1631.25 188 1629.6 184.042C1628.28 180.084 1624.16 178.105 1617.23 178.105C1612.61 178.105 1608.82 179.095 1605.85 181.074C1603.21 182.723 1600.24 185.196 1596.94 188.495C1593.32 192.123 1588.7 193.937 1583.09 193.937H1498.99C1495.69 193.937 1492.88 192.947 1490.58 190.968C1488.6 188.989 1487.77 186.351 1488.1 183.053C1488.43 176.786 1491.07 169.53 1496.02 161.284C1500.97 152.709 1508.55 144.463 1518.78 136.547C1529.33 128.632 1542.69 122.035 1558.85 116.758C1575.34 111.481 1595.13 108.842 1618.22 108.842C1640.65 108.842 1660.11 111.316 1676.6 116.263C1693.42 120.881 1707.27 127.807 1718.16 137.042C1729.04 145.947 1737.12 157.161 1742.4 170.684C1748 183.877 1750.81 198.884 1750.81 215.705V357.695C1750.81 361.323 1749.49 364.456 1746.85 367.095C1744.21 369.733 1741.08 371.053 1737.45 371.053H1650.87C1647.24 371.053 1644.11 369.733 1641.47 367.095C1638.83 364.456 1637.51 361.323 1637.51 357.695V343.842C1632.9 350.439 1626.96 356.21 1619.7 361.158C1612.78 365.775 1604.86 369.403 1595.96 372.042C1587.05 374.681 1577.48 376 1567.26 376ZM1601.4 302.779C1607.99 302.779 1613.6 301.46 1618.22 298.821C1623.17 296.182 1626.96 292.06 1629.6 286.453C1632.24 280.516 1633.56 273.26 1633.56 264.684V264.189L1604.37 270.621C1595.79 272.6 1590.02 275.239 1587.05 278.537C1584.08 281.835 1582.6 285.298 1582.6 288.926C1582.6 291.235 1583.26 293.544 1584.58 295.853C1586.23 297.832 1588.37 299.481 1591.01 300.8C1593.98 302.119 1597.44 302.779 1601.4 302.779Z" fill="#F1DBAE"/>
<path d="M1288.79 371.053C1285.16 371.053 1282.03 369.733 1279.39 367.095C1276.75 364.456 1275.43 361.323 1275.43 357.695V131.105H1193.3C1189.68 131.105 1186.54 129.786 1183.9 127.147C1181.27 124.509 1179.95 121.375 1179.95 117.747V38.0947C1179.95 34.4667 1181.27 31.3333 1183.9 28.6947C1186.54 26.0561 1189.68 24.7368 1193.3 24.7368H1483.22C1486.85 24.7368 1489.98 26.0561 1492.62 28.6947C1495.26 31.3333 1496.58 34.4667 1496.58 38.0947V117.747C1496.58 121.375 1495.26 124.509 1492.62 127.147C1489.98 129.786 1486.85 131.105 1483.22 131.105H1401.09V357.695C1401.09 361.323 1399.78 364.456 1397.14 367.095C1394.5 369.733 1391.36 371.053 1387.74 371.053H1288.79Z" fill="#F1DBAE"/>
<path d="M658.719 371.053C655.091 371.053 651.957 369.733 649.319 367.095C646.68 364.456 645.361 361.323 645.361 357.695V127.147C645.361 123.519 646.68 120.386 649.319 117.747C651.957 115.109 655.091 113.789 658.719 113.789H745.298C748.926 113.789 752.059 115.109 754.698 117.747C757.336 120.386 758.656 123.519 758.656 127.147V143.474C766.901 133.909 778.28 125.828 792.792 119.232C807.305 112.305 823.301 108.842 840.782 108.842C857.603 108.842 873.27 112.8 887.782 120.716C902.294 128.632 914.003 140.835 922.908 157.326C932.143 173.817 936.761 195.091 936.761 221.147V357.695C936.761 361.323 935.442 364.456 932.803 367.095C930.164 369.733 927.031 371.053 923.403 371.053H828.908C825.28 371.053 822.147 369.733 819.508 367.095C816.87 364.456 815.55 361.323 815.55 357.695V224.61C815.55 215.705 813.406 208.944 809.119 204.326C804.831 199.709 798.729 197.4 790.814 197.4C782.898 197.4 776.796 199.709 772.508 204.326C768.22 208.944 766.077 215.705 766.077 224.61V357.695C766.077 361.323 764.757 364.456 762.119 367.095C759.48 369.733 756.347 371.053 752.719 371.053H658.719Z" fill="#F1DBAE"/>
<path d="M419.726 376C400.926 376 384.27 372.537 369.757 365.61C355.245 358.684 343.866 349.284 335.621 337.41C327.705 325.537 323.747 312.179 323.747 297.337C323.747 273.26 333.477 254.46 352.936 240.937C372.726 227.084 399.112 217.354 432.094 211.747L484.536 203.337V202.842C484.536 194.267 483.712 188 482.063 184.042C480.743 180.084 476.621 178.105 469.694 178.105C465.077 178.105 461.284 179.095 458.315 181.074C455.677 182.723 452.708 185.196 449.41 188.495C445.782 192.123 441.164 193.937 435.557 193.937H351.452C348.154 193.937 345.35 192.947 343.042 190.968C341.063 188.989 340.238 186.351 340.568 183.053C340.898 176.786 343.536 169.53 348.484 161.284C353.431 152.709 361.017 144.463 371.242 136.547C381.796 128.632 395.154 122.035 411.315 116.758C427.807 111.481 447.596 108.842 470.684 108.842C493.112 108.842 512.571 111.316 529.063 116.263C545.884 120.881 559.736 127.807 570.621 137.042C581.505 145.947 589.585 157.161 594.863 170.684C600.47 183.877 603.273 198.884 603.273 215.705V357.695C603.273 361.323 601.954 364.456 599.315 367.095C596.677 369.733 593.543 371.053 589.915 371.053H503.336C499.708 371.053 496.575 369.733 493.936 367.095C491.298 364.456 489.978 361.323 489.978 357.695V343.842C485.361 350.439 479.424 356.21 472.168 361.158C465.242 365.775 457.326 369.403 448.421 372.042C439.515 374.681 429.95 376 419.726 376ZM453.863 302.779C460.459 302.779 466.066 301.46 470.684 298.821C475.631 296.182 479.424 292.06 482.063 286.453C484.701 280.516 486.021 273.26 486.021 264.684V264.189L456.831 270.621C448.256 272.6 442.484 275.239 439.515 278.537C436.547 281.835 435.063 285.298 435.063 288.926C435.063 291.235 435.722 293.544 437.042 295.853C438.691 297.832 440.835 299.481 443.473 300.8C446.442 302.119 449.905 302.779 453.863 302.779Z" fill="#F1DBAE"/>
<path d="M13.3579 371.053C9.72982 371.053 6.59649 369.733 3.95789 367.095C1.3193 364.456 0 361.323 0 357.695V38.0947C0 34.4667 1.3193 31.3333 3.95789 28.6947C6.59649 26.0561 9.72982 24.7368 13.3579 24.7368H163.263C193.277 24.7368 219.333 29.1894 241.432 38.0947C263.86 46.6702 281.175 60.0281 293.379 78.1684C305.912 95.9789 312.179 118.572 312.179 145.947C312.179 173.323 305.912 195.751 293.379 213.232C281.175 230.382 263.86 243.081 241.432 251.326C219.333 259.242 193.277 263.2 163.263 263.2H128.632V357.695C128.632 361.323 127.312 364.456 124.674 367.095C122.035 369.733 118.902 371.053 115.274 371.053H13.3579ZM126.158 171.674H160.789C166.067 171.674 171.179 169.695 176.126 165.737C181.074 161.449 183.547 154.523 183.547 144.958C183.547 138.691 181.898 132.425 178.6 126.158C175.632 119.891 169.695 116.758 160.789 116.758H126.158V171.674Z" fill="#F1DBAE"/>
</svg>
